<svg width="21" height="18" viewBox="0 0 21 18" fill="none" xmlns="http://www.w3.org/2000/svg">
<path d="M10.4377 0C5.11648 0 0.779626 4.005 0.779626 8.919C0.779626 10.494 1.22793 12.024 2.06606 13.374L0.70166 18L5.81818 16.758C7.23131 17.469 8.81987 17.847 10.4377 17.847C15.7588 17.847 20.0957 13.842 20.0957 8.928C20.0957 6.543 19.0919 4.302 17.2694 2.619C15.447 0.927 13.0203 0 10.4377 0ZM10.4474 1.503C12.5915 1.503 14.5991 2.277 16.1194 3.681C17.63 5.085 18.4682 6.948 18.4682 8.928C18.4682 13.014 14.8622 16.335 10.4377 16.335C8.99529 16.335 7.58216 15.984 6.35419 15.3L6.06182 15.147L3.02115 15.885L3.83005 13.149L3.63513 12.861C2.83598 11.7 2.40717 10.323 2.40717 8.919C2.41691 4.833 6.01309 1.503 10.4474 1.503ZM7.0169 4.797C6.86097 4.797 6.59784 4.851 6.37368 5.076C6.15928 5.301 5.5258 5.85 5.5258 6.939C5.5258 8.037 6.39318 9.09 6.50038 9.243C6.63682 9.396 8.21563 11.646 10.6423 12.6C11.2173 12.843 11.6656 12.978 12.0165 13.077C12.5915 13.248 13.1177 13.221 13.5368 13.167C14.0046 13.104 14.9597 12.627 15.1643 12.105C15.369 11.583 15.369 11.142 15.3105 11.043C15.2423 10.953 15.0864 10.899 14.8427 10.8C14.5991 10.674 13.4101 10.134 13.1957 10.062C12.9716 9.99 12.8351 9.954 12.6499 10.17C12.494 10.395 12.0262 10.899 11.8898 11.043C11.7436 11.196 11.6072 11.214 11.3733 11.106C11.1199 10.989 10.3402 10.755 9.4241 9.999C8.70292 9.405 8.22538 8.676 8.07919 8.451C7.96224 8.235 8.06944 8.1 8.18639 8.001C8.2936 7.902 8.44953 7.74 8.54699 7.605C8.67368 7.479 8.71266 7.38 8.79063 7.236C8.8686 7.083 8.82961 6.957 8.77114 6.849C8.71266 6.75 8.22538 5.634 8.02072 5.193C7.8258 4.761 7.63089 4.815 7.47495 4.806C7.33851 4.806 7.18258 4.797 7.0169 4.797Z" fill="#363636"/>
</svg>
