<svg width="21" height="19" viewBox="0 0 21 19" fill="none" xmlns="http://www.w3.org/2000/svg">
<path d="M13.4841 0H7.53009C2.09976 0 0.810059 1.2635 0.810059 6.5835V12.4165C0.810059 17.7365 2.09976 19 7.53009 19H13.4841C18.9144 19 20.2041 17.7365 20.2041 12.4165V6.5835C20.2041 1.2635 18.9144 0 13.4841 0ZM16.4707 13.5565H15.055C14.5216 13.5565 14.3568 13.129 13.4162 12.1885C12.5628 11.4 12.1944 11.286 11.9907 11.286C11.7095 11.286 11.6222 11.362 11.6222 11.761V13.0055C11.6222 13.338 11.5156 13.547 10.6137 13.547C9.1204 13.547 7.46221 12.654 6.29857 11.0105C4.54341 8.5975 4.06826 6.7735 4.06826 6.4125C4.06826 6.213 4.13614 6.023 4.54341 6.023H5.96887C6.32766 6.023 6.46342 6.175 6.59918 6.555C7.29736 8.55 8.46101 10.26 8.93616 10.26C9.1204 10.26 9.19798 10.1745 9.19798 9.7375V7.695C9.14949 6.764 8.63555 6.6785 8.63555 6.346C8.63555 6.175 8.77131 6.023 8.99434 6.023H11.215C11.5156 6.023 11.6222 6.175 11.6222 6.536V9.2815C11.6222 9.576 11.7483 9.6805 11.8453 9.6805C12.0198 9.6805 12.175 9.576 12.495 9.253C13.5132 8.1415 14.2404 6.422 14.2404 6.422C14.3374 6.2225 14.4926 6.0325 14.8707 6.0325H16.2574C16.6841 6.0325 16.7811 6.251 16.6841 6.5455C16.5095 7.353 14.7835 9.7375 14.8029 9.7375C14.6477 9.975 14.5895 10.0795 14.8029 10.355C14.9483 10.5545 15.4429 10.9725 15.7726 11.343C16.3738 12.0175 16.8392 12.578 16.9653 12.9675C17.072 13.357 16.878 13.5565 16.4707 13.5565Z" fill="#363636"/>
</svg>
